Coordinates
version=1
nRows=10
nColumns=46
inDegrees=yes

Units are S.I. units (second, meters, Newtons, ...)
Angles are in degrees.

endheader
time	pelvis_tilt	pelvis_list	pelvis_rotation	pelvis_tx	pelvis_ty	pelvis_tz	bb_angle	bb_tx	bb_ty	bb_tz	hip_flexion_r	hip_adduction_r	hip_rotation_r	knee_angle_r	knee_angle_r_beta	ankle_angle_r	subtalar_angle_r	mtp_angle_r	crank_angle_r	hip_flexion_l	hip_adduction_l	hip_rotation_l	knee_angle_l	knee_angle_l_beta	ankle_angle_l	subtalar_angle_l	mtp_angle_l	crank_angle_l	lumbar_extension	lumbar_bending	lumbar_rotation	arm_flex_r	arm_add_r	arm_rot_r	elbow_flex_r	pro_sup_r	wrist_flex_r	wrist_dev_r	arm_flex_l	arm_add_l	arm_rot_l	elbow_flex_l	pro_sup_l	wrist_flex_l	wrist_dev_l
      7.50000000	     -7.64546750	     -4.07107553	     -1.49408138	      0.18057623	      1.06745838	     -0.33131036	      0.00000000	      0.50000000	      0.00000000	      0.25000000	     66.90859824	     -1.88099905	      0.18229913	     72.37355419	      1.26315681	      6.96000250	    -10.25966496	      0.00000000	      0.00000000	     51.07827347	     -9.57261674	      4.44259926	     84.34677544	      1.47212894	    -13.37677403	     -5.90928937	      0.00000000	      0.00000000	    -70.46140622	      0.83965640	      3.59313695	     89.61613763	     -7.25699287	     22.60520100	     49.32697603	     25.64384699	      0.00000000	      0.00000000	     87.40271341	     -9.69425487	     24.27365335	     47.62169412	     37.80393556	      0.00000000	      0.00000000
      7.50500000	     -7.60061586	     -3.90606446	     -1.49870010	      0.18077814	      1.06531045	     -0.33071520	      0.00000000	      0.50000000	      0.00000000	      0.25000000	     65.91358254	     -2.00305182	      0.03358652	     70.54160361	      1.23118324	      5.26372199	    -10.11288722	      0.00000000	      0.00000000	     52.48434066	     -9.36831963	      4.80416545	     87.12153932	      1.52055771	    -12.77573903	     -5.82480131	      0.00000000	      0.00000000	    -70.25331704	      0.74915218	      3.40545256	     89.61345746	     -7.19103292	     22.78561099	     49.02035966	     25.57748320	      0.00000000	      0.00000000	     87.29956873	     -9.97290159	     24.67389106	     47.66308393	     37.87260285	      0.00000000	      0.00000000
      7.51000000	     -7.36393430	     -3.35359424	     -1.51979506	      0.18108546	      1.06382548	     -0.33030683	      0.00000000	      0.50000000	      0.00000000	      0.25000000	     64.71455676	     -2.34352860	      0.34395111	     68.71664153	      1.19933165	      3.81098326	     -9.72476228	      0.00000000	      0.00000000	     53.50991904	     -8.85413625	      4.75525521	     89.64350425	      1.56457430	    -12.29387450	     -6.08208936	      0.00000000	      0.00000000	    -70.30401366	      0.40876340	      2.92213355	     89.60127138	     -7.31447645	     22.80789040	     48.96406489	     25.56666907	      0.00000000	      0.00000000	     87.33503408	    -10.01722563	     24.77831343	     47.67122856	     37.88920710	      0.00000000	      0.00000000
      7.51500000	     -7.20785533	     -3.24911246	     -1.40946061	      0.18139928	      1.06199699	     -0.32957785	      0.00000000	      0.50000000	      0.00000000	      0.25000000	     63.57414356	     -2.51040499	      0.06686053	     66.94663066	      1.16843913	      1.75801784	     -9.98648466	      0.00000000	      0.00000000	     54.81390929	     -8.65658516	      5.21081877	     92.28901588	      1.61074719	    -11.51968595	     -5.79869362	      0.00000000	      0.00000000	    -70.22984685	      0.40416143	      2.74167785	     89.59344341	     -7.33847923	     23.21818738	     48.67011060	     25.53850964	      0.00000000	      0.00000000	     87.28056876	    -10.36503323	     25.30683053	     47.72957439	     37.97529031	      0.00000000	      0.00000000
      7.52000000	     -6.97766563	     -2.95570965	     -1.41253493	      0.18196473	      1.06035761	     -0.32886637	      0.00000000	      0.50000000	      0.00000000	      0.25000000	     62.36437371	     -2.68027901	      0.06070052	     65.23797075	      1.13861739	     -0.06954463	    -10.24888671	      0.00000000	      0.00000000	     55.98367009	     -8.45079320	      5.35654316	     94.86810204	      1.65576074	    -10.72248476	     -5.59983691	      0.00000000	      0.00000000	    -70.23146815	      0.18994889	      2.47730884	     89.58296547	     -7.56328064	     23.83885002	     48.33283177	     25.53466796	      0.00000000	      0.00000000	     87.21859956	    -10.72794730	     26.13844580	     47.95634645	     38.13825811	      0.00000000	      0.00000000
      7.52500000	     -6.66672499	     -2.68087614	     -1.21052092	      0.18245813	      1.05927213	     -0.32828638	      0.00000000	      0.50000000	      0.00000000	      0.25000000	     60.92853500	     -3.04104078	     -0.08792685	     63.42051999	      1.10689689	     -1.90424501	     -9.93138812	      0.00000000	      0.00000000	     56.98814340	     -8.02859110	      5.62832517	     97.20632718	      1.69657046	     -9.96289123	     -5.65268251	      0.00000000	      0.00000000	    -70.36435130	      0.14097588	      2.12097408	     89.57062595	     -7.68485761	     24.10327996	     48.21650147	     25.54804284	      0.00000000	      0.00000000	     87.23119203	    -10.93086103	     26.46205038	     48.00860395	     38.19788918	      0.00000000	      0.00000000
      7.53000000	     -6.47936023	     -2.20039799	     -1.06969399	      0.18302954	      1.05817089	     -0.32754355	      0.00000000	      0.50000000	      0.00000000	      0.25000000	     59.61056721	     -3.44886674	      0.10948063	     61.65169536	      1.07602507	     -3.49245643	     -9.36896909	      0.00000000	      0.00000000	     58.09152301	     -7.50808062	      5.69177719	     99.43527620	      1.73547296	     -9.21987367	     -5.83980509	      0.00000000	      0.00000000	    -70.45087223	     -0.13235979	      1.63680170	     89.54802339	     -7.88617861	     24.19623813	     48.12134344	     25.54587308	      0.00000000	      0.00000000	     87.22249705	    -10.97551515	     26.62263285	     48.04225436	     38.22696129	      0.00000000	      0.00000000
      7.53500000	     -6.13954625	     -2.11026741	     -0.82912526	      0.18360661	      1.05728159	     -0.32650882	      0.00000000	      0.50000000	      0.00000000	      0.25000000	     57.99681214	     -3.62827200	     -0.07356616	     59.86318489	      1.04480968	     -5.18018138	     -9.42076272	      0.00000000	      0.00000000	     59.17017910	     -7.32757662	      6.09882913	    101.67342501	      1.77453603	     -8.33873621	     -5.50345945	      0.00000000	      0.00000000	    -70.59928747	     -0.12558491	      1.49178752	     89.54220626	     -8.08324903	     24.73700677	     47.83300332	     25.56233987	      0.00000000	      0.00000000	     87.22585297	    -11.17536470	     27.14227279	     48.17013068	     38.32149064	      0.00000000	      0.00000000
      7.54000000	     -5.95633527	     -1.63281502	     -0.62143264	      0.18423152	      1.05636919	     -0.32558406	      0.00000000	      0.50000000	      0.00000000	      0.25000000	     56.64196495	     -4.07734124	      0.15878435	     58.24309558	      1.01653378	     -6.48813707	     -8.82647697	      0.00000000	      0.00000000	     60.30925857	     -6.84540575	      6.09160898	    103.71491373	      1.81016673	     -7.65939602	     -5.78705908	      0.00000000	      0.00000000	    -70.63605154	     -0.38157577	      0.99608595	     89.50956135	     -8.29278426	     24.81592755	     47.74281287	     25.56059551	      0.00000000	      0.00000000	     87.24687984	    -11.13414848	     27.28803408	     48.20017232	     38.34536936	      0.00000000	      0.00000000
      7.54500000	     -5.62405714	     -1.50349367	     -0.36157440	      0.18489640	      1.05573943	     -0.32455740	      0.00000000	      0.50000000	      0.00000000	      0.25000000	     55.02286666	     -4.33874169	     -0.06998059	     56.55777538	      0.98711940	     -8.12887360	     -8.59360755	      0.00000000	      0.00000000	     61.39693640	     -6.62689294	      6.44332964	    105.74734631	      1.84563937	     -6.83566412	     -5.50072480	      0.00000000	      0.00000000	    -70.78536557	     -0.41102861	      0.84465324	     89.52061533	     -8.80279384	     26.35175436	     47.20472388	     25.72333581	      0.00000000	      0.00000000	     87.34597023	    -11.48091744	     28.73270062	     48.27746740	     38.55846103	      0.00000000	      0.00000000
